<?xml version="1.0" standalone="no"?>
<svg xmlns:xlink="http://www.w3.org/1999/xlink" xmlns="http://www.w3.org/2000/svg" viewBox="0 0 555 185" fill-rule="evenodd" clip-rule="evenodd" stroke-linejoin="round" stroke-miterlimit="1.414"><path d="M165.388 61.493l-3.292 12.66-.742 2.855-2.856-.736-1.152-.297-.632-.163-.097-.027a1.168 1.168 0 0 1-.732-.6l-.038-.075-.269-.429c-.46-.734-1.145-1.251-1.929-1.454a2.932 2.932 0 0 0-.739-.095c-1.615 0-3.128 1.311-3.597 3.117-.276 1.06-.165 2.139.312 3.038.451.849 1.15 1.418 2.021 1.644.287.074.567.112.835.112.527 0 1.011-.142 1.48-.435l.527-.329.441-.164a.794.794 0 0 1 .338-.047l.43.035.578.15 1.108.288 2.86.744-.744 2.86-.576 2.216c4.223 1.955 7.12 6.286 6.956 11.283-.201 6.114-5.111 11.183-11.216 11.564-6.972.436-12.763-5.09-12.763-11.969 0-.274.012-.546.032-.815l-2.231-.58-2.856-.742.738-2.857.3-1.162.143-.555.017-.044c.13-.333.347-.626.627-.847l.032-.025.479-.299c.754-.47 1.279-1.151 1.478-1.917.224-.864.061-1.75-.472-2.562-.566-.864-1.467-1.492-2.535-1.77a4.578 4.578 0 0 0-1.15-.149c-.674 0-1.332.159-1.904.461-.854.451-1.425 1.147-1.651 2.016-.226.867-.127 1.623.303 2.311l.352.565.143.316a.898.898 0 0 1 .065.536l-.062.336-.145.557-.291 1.119-.744 2.86-2.86-.744-12.676-3.296a37.637 37.637 0 0 0-.713 7.289c0 20.739 16.822 37.551 37.573 37.551s37.573-16.812 37.573-37.551c-.001-16.731-10.953-30.893-26.077-35.748z" fill="#3d69b0"/><path d="M159.236 73.41l3.315-12.751-35.663-9.273-9.273 35.663 12.835 3.337.291-1.119v-.002c-.858-1.377-1.084-2.968-.655-4.619.434-1.669 1.547-3.049 3.133-3.886 1.559-.822 3.398-1.02 5.176-.558 1.78.463 3.293 1.531 4.263 3.01.989 1.508 1.295 3.258.861 4.927-.39 1.501-1.376 2.809-2.775 3.681l-.001.002-.3 1.162 12.836 3.338 3.359-12.92-1.108-.288h-.002c-1.391.87-2.985 1.104-4.625.678-1.67-.434-3.05-1.542-3.888-3.119-.825-1.554-1.024-3.389-.562-5.167.967-3.72 4.529-6.026 7.94-5.139 1.517.394 2.827 1.369 3.689 2.745l.002.001 1.152.297z" fill="#f68920"/></svg>